<svg width="512" height="512" viewBox="0 0 512 512" xmlns="http://www.w3.org/2000/svg">
  <rect width="512" height="512" rx="90" fill="#1a1a1a"/>
  <g transform="translate(26,316)">
    <rect width="140" height="130" rx="12" fill="#4f8ef7"/>
    <rect x="0" y="58" width="140" height="14" fill="#2d6bc4" opacity="0.6"/>
    <rect x="62" y="0" width="16" height="130" fill="#2d6bc4" opacity="0.4"/>
  </g>
  <g transform="translate(186,316)">
    <rect width="140" height="130" rx="12" fill="#f97c4f"/>
    <rect x="0" y="58" width="140" height="14" fill="#d4622e" opacity="0.6"/>
    <rect x="62" y="0" width="16" height="130" fill="#d4622e" opacity="0.4"/>
  </g>
  <g transform="translate(346,316)">
    <rect width="140" height="130" rx="12" fill="#4fc98a"/>
    <rect x="0" y="58" width="140" height="14" fill="#2fa86a" opacity="0.6"/>
    <rect x="62" y="0" width="16" height="130" fill="#2fa86a" opacity="0.4"/>
  </g>
  <g transform="translate(106,176)">
    <rect width="140" height="130" rx="12" fill="#f9c84f"/>
    <rect x="0" y="58" width="140" height="14" fill="#d4a020" opacity="0.6"/>
    <rect x="62" y="0" width="16" height="130" fill="#d4a020" opacity="0.4"/>
  </g>
  <g transform="translate(266,176)">
    <rect width="140" height="130" rx="12" fill="#c44ff9"/>
    <rect x="0" y="58" width="140" height="14" fill="#9a20d4" opacity="0.6"/>
    <rect x="62" y="0" width="16" height="130" fill="#9a20d4" opacity="0.4"/>
  </g>
  <g transform="translate(186,36)">
    <rect width="140" height="130" rx="12" fill="#4fc9c9"/>
    <rect x="0" y="58" width="140" height="14" fill="#20a8a8" opacity="0.6"/>
    <rect x="62" y="0" width="16" height="130" fill="#20a8a8" opacity="0.4"/>
    <text x="70" y="42" text-anchor="middle" font-size="28" fill="white" opacity="0.9">★</text>
  </g>
</svg>
